<?xml version="1.0" encoding="utf-8"?>
<!-- Generator: Adobe Illustrator 16.0.0, SVG Export Plug-In . SVG Version: 6.00 Build 0)  -->
<!DOCTYPE svg PUBLIC "-//W3C//DTD SVG 1.1//EN" "http://www.w3.org/Graphics/SVG/1.1/DTD/svg11.dtd">
<svg version="1.1" id="Layer_1" xmlns="http://www.w3.org/2000/svg" xmlns:xlink="http://www.w3.org/1999/xlink" x="0px" y="0px"
	 width="487.684px" height="347.069px" viewBox="0 0 487.684 347.069" enable-background="new 0 0 487.684 347.069"
	 xml:space="preserve">
<g>
	<g>
		<g>
			<linearGradient id="SVGID_1_" gradientUnits="userSpaceOnUse" x1="67.2583" y1="337.7798" x2="137.6449" y2="215.8666">
				<stop  offset="0" style="stop-color:#F9A01B"/>
				<stop  offset="0.1943" style="stop-color:#F49B22"/>
				<stop  offset="0.4425" style="stop-color:#EA8E30"/>
				<stop  offset="0.72" style="stop-color:#DB7940"/>
				<stop  offset="1" style="stop-color:#CB5F4F"/>
			</linearGradient>
			<path fill="url(#SVGID_1_)" d="M129.092,210.929v131.788H75.81V210.929H129.092z"/>
		</g>
		<linearGradient id="SVGID_2_" gradientUnits="userSpaceOnUse" x1="378.5269" y1="338.6011" x2="482.0059" y2="159.3702">
			<stop  offset="0" style="stop-color:#F9A01B"/>
			<stop  offset="0.1943" style="stop-color:#F49B22"/>
			<stop  offset="0.4425" style="stop-color:#EA8E30"/>
			<stop  offset="0.72" style="stop-color:#DB7940"/>
			<stop  offset="1" style="stop-color:#CB5F4F"/>
		</linearGradient>
		<path fill="url(#SVGID_2_)" d="M389.462,214.173c3.142-17.526,3.853-32.926,3.853-45.776c0-2.121-0.021-4.222-0.068-6.308
			l-0.099,0.078l93.566-0.078l-31.704,69.425c11.401,7.127,19.697,14.94,24.884,23.437c5.183,8.504,7.779,18.566,7.79,30.201
			c0.019,17.359-6.856,32.014-20.617,43.963c-13.761,11.957-30.709,17.938-50.844,17.953c-11.112,0.012-22.135-1.92-33.056-5.787
			l-0.052-51.025c8.271,4.754,15.438,7.127,21.519,7.123c6.646-0.005,12.228-2.211,16.734-6.623
			c4.505-4.406,6.758-9.872,6.751-16.396c-0.008-7.486-3.384-13.457-10.129-17.902c-6.753-4.441-15.777-6.664-27.078-6.652
			l14.358-35.572l-15.904,0.014L389.462,214.173z"/>
		<g>
			<linearGradient id="SVGID_3_" gradientUnits="userSpaceOnUse" x1="136.312" y1="341.9243" x2="322.9032" y2="18.7389">
				<stop  offset="0" style="stop-color:#F9A01B"/>
				<stop  offset="0.1943" style="stop-color:#F49B22"/>
				<stop  offset="0.4425" style="stop-color:#EA8E30"/>
				<stop  offset="0.72" style="stop-color:#DB7940"/>
				<stop  offset="1" style="stop-color:#CB5F4F"/>
			</linearGradient>
			<path fill="url(#SVGID_3_)" d="M218.021,98.422v244.295h-80.335V0h104.671c45.906,0,81.852,13.224,107.838,39.674
				c29.664,30.395,45.07,71.229,46.234,122.493c0.047,2.082,0.068,4.187,0.068,6.304c0,16.188-1.281,31.447-3.853,45.775
				c-5.661,31.607-17.571,58.697-35.723,81.271c-26.386,32.806-60.349,49.21-101.901,49.21c-4.881,0-12.859-0.338-23.939-1.004
				V243.041h12.86c46.827,0,70.243-24.855,70.243-74.57c0-46.698-23.021-70.048-69.057-70.048H218.021z"/>
		</g>
	</g>
	<g>
		<path fill="#F7941E" d="M119.145,177.593L89.36,162.775c-1.667,3.349-4.25,6.243-7.553,8.273l17.434,28.325l0.003,0.006
			c8.81-5.412,15.564-13.04,19.905-21.781L119.145,177.593z"/>
		<g>
			<path fill="#FED09E" d="M77.513,173.046c-0.566,0.198-1.133,0.365-1.703,0.51l13.247,57.388h0.004
				c6.233-1.443,12.39-3.674,18.339-6.73c1.82-0.936,3.591-1.934,5.308-2.988l-30.933-50.254
				C80.464,171.809,79.043,172.512,77.513,173.046z"/>
			<polygon fill="#D9BFDC" points="112.716,221.222 112.708,221.226 112.829,221.424 			"/>
		</g>
		<path fill="#FED09E" d="M137.817,147.783l-46.639,4.188c0.337,3.712-0.364,7.382-1.931,10.637l41.823,20.809l0.119-0.233
			c5.352-10.887,7.708-23.144,6.63-35.4H137.817z"/>
		<g>
			<polygon fill="#FFC733" points="106.172,150.432 106.175,150.431 106.172,150.432 			"/>
			<path fill="#FFC733" d="M103.252,139.212l-13.809,6.184c0.245,0.544,0.47,1.097,0.67,1.667c0.546,1.562,0.886,3.142,1.044,4.716
				l15.015-1.348C105.844,146.642,104.887,142.852,103.252,139.212z"/>
		</g>
		<g>
			<polygon fill="#F89943" points="86.239,219.027 86.239,219.027 86.239,219.027 			"/>
			<path fill="#F89943" d="M65.193,173.534l-13.519,44.054l-0.062,0.198c11.059,3.393,22.998,3.937,34.626,1.24l-10.442-45.232
				C72.204,174.675,68.558,174.533,65.193,173.534z"/>
		</g>
		<g>
			<polygon fill="#644FA1" points="49.775,181.394 49.775,181.394 49.775,181.395 			"/>
			<path fill="#CF7B29" d="M58.555,170.148l-8.78,11.246c3.371,2.629,7.182,4.596,11.215,5.836l4.203-13.696
				C62.796,172.822,60.542,171.675,58.555,170.148z"/>
		</g>
		<g>
			<polygon fill="#FFC733" points="0,188.293 0.022,188.283 0.022,188.282 			"/>
			<path fill="#FFC733" d="M52.876,162.778l-13.034,6.287l-39.82,19.218c0.287,0.594,0.582,1.186,0.886,1.774
				c5.417,10.546,12.88,19.356,21.655,26.198l0.006-0.002l36.116-46.274C56.277,168.101,54.266,165.667,52.876,162.778z"/>
		</g>
		<path fill="#FED09E" d="M51.676,160.517c-0.586-1.675-0.94-3.377-1.08-5.071l-14.183,1.215l-18.725,1.603h-0.001
			c0.54,6.342,2.225,12.682,5.146,18.732l16.924-8.168l12.805-6.179C52.232,161.964,51.934,161.252,51.676,160.517z"/>
		<g>
			<polygon fill="#F89943" points="36.807,147.768 36.81,147.77 36.81,147.768 			"/>
			<path fill="#CF7B29" d="M50.663,155.459c-0.126-1.774-0.019-3.533,0.309-5.239L36.81,147.77c-0.508,2.92-0.646,5.914-0.392,8.909
				L50.663,155.459z"/>
		</g>
		<path fill="#F7941E" d="M54.842,141.593l-11.668-8.676l-25.651-19.072l-0.001-0.004c-6.262,8.437-10.426,18.219-12.209,28.478
			l-0.384-0.065l31.878,5.514l14.164,2.453C51.571,147.078,52.899,144.12,54.842,141.593z"/>
		<path fill="#DAA28B" d="M54.952,141.674c1.812-2.411,4.176-4.434,6.984-5.867l-6.722-13.081L35.007,83.404
			C23.875,89.124,14.68,97.12,7.692,106.53l0.002,0.003l35.48,26.384L54.952,141.674z"/>
		<path fill="#CF7B29" d="M64.407,134.489c1.784-0.625,3.595-0.98,5.395-1.1l-0.905-14.436l-0.003,0.002
			c-4.654,0.29-9.327,1.523-13.741,3.792l6.618,12.881C62.611,135.195,63.49,134.809,64.407,134.489z"/>
		<path fill="#CF7B29" d="M89.713,145.386l30.362-13.6c-0.389-0.869-0.805-1.732-1.244-2.588
			c-3.344-6.506-7.834-12.039-13.097-16.478l-0.001,0.001l-12.122,14.362l-9.343,11.066
			C86.55,140.071,88.431,142.516,89.713,145.386z"/>
		<path fill="#FDB719" d="M121.691,93.359c-6.931-5.789-13.425-9.354-19.449-11.945l-9.729,23.494l-7.549,17.208l-5.812,13.255
			c1.785,0.784,3.454,1.82,4.955,3.082l9.342-11.062l12.121-14.364l16.401-19.429L121.691,93.359z"/>
		<path fill="#FED09E" d="M67.792,100.175l-0.005,0.003l1.172,18.754l0.92,14.68c3.25-0.214,6.454,0.357,9.364,1.609l5.884-13.411
			l7.548-17.207l0.005-0.004C84.908,101.197,76.371,99.643,67.792,100.175z"/>
	</g>
</g>
</svg>
